<svg xmlns="http://www.w3.org/2000/svg" viewBox="0.0 0.0 264.0 264.0" width="264.0" height="264.0"><g transform="translate(4,4)"><rect x="0.00" y="0.00" width="256.00" height="256.00" fill="none" stroke="currentColor" stroke-width="8"/><path d="M 48.00,128.00 A 54.40,54.40 0 0 1 128.00,128.00 A 54.40,54.40 0 0 0 208.00,128.00 M 48.00,80.00 A 54.40,54.40 0 0 1 128.00,80.00 A 54.40,54.40 0 0 0 208.00,80.00 M 48.00,176.00 A 54.40,54.40 0 0 1 128.00,176.00 A 54.40,54.40 0 0 0 208.00,176.00 M 115.20,182.40 L 134.40,163.20 M 115.20,86.40 L 134.40,67.20" fill="none" stroke="currentColor" stroke-width="8" stroke-linecap="round" stroke-linejoin="round"/></g></svg>