<svg xmlns="http://www.w3.org/2000/svg" viewBox="0.0 0.0 264.0 264.0" width="264.0" height="264.0"><g transform="translate(4,4)"><rect x="0.00" y="0.00" width="256.00" height="256.00" fill="none" stroke="currentColor" stroke-width="8"/><path d="M 48.00,32.00 L 96.00,32.00 A 16.00,16.00 0 0 1 96.00,80.00 A 16.00,16.00 0 0 1 96.00,128.00 A 16.00,16.00 0 0 1 96.00,176.00 A 16.00,16.00 0 0 1 96.00,224.00 L 48.00,224.00 M 208.00,32.00 L 160.00,32.00 A 16.00,16.00 0 0 0 160.00,80.00 A 16.00,16.00 0 0 0 160.00,128.00 A 16.00,16.00 0 0 0 160.00,176.00 A 16.00,16.00 0 0 0 160.00,224.00 L 208.00,224.00" fill="none" stroke="currentColor" stroke-width="8" stroke-linecap="round" stroke-linejoin="round"/></g></svg>