<svg xmlns="http://www.w3.org/2000/svg" viewBox="0.0 0.0 264.0 137.0" width="264.0" height="137.0"><g transform="translate(4,4)"><path d="M 0.00,59.40 L 37.49,59.40 L 37.49,38.71 L 68.78,38.71 A 64.65,64.65 0 0 1 187.22,38.71 L 218.51,38.71 L 218.51,59.40 L 256.00,59.40 L 256.00,69.74 L 218.51,69.74 L 218.51,90.43 L 187.22,90.43 A 64.65,64.65 0 0 1 68.78,90.43 L 37.49,90.43 L 37.49,69.74 L 0.00,69.74 Z" fill="none" stroke="currentColor" stroke-width="8" stroke-linecap="round" stroke-linejoin="round"/><path d="M 37.49,59.40 L 37.49,69.74 M 218.51,59.40 L 218.51,69.74 M 68.78,90.43 A 64.65,64.65 0 0 1 68.78,38.71 M 187.22,38.71 A 64.65,64.65 0 0 1 187.22,90.43" fill="none" stroke="currentColor" stroke-width="8" stroke-linecap="round" stroke-linejoin="round"/></g></svg>