<svg xmlns="http://www.w3.org/2000/svg" viewBox="0.0 0.0 256.0 256.0" width="256.0" height="256.0"><rect x="109.71" y="0.00" width="146.29" height="256.00" fill="none" stroke="currentColor" stroke-width="8"/><rect x="0.00" y="38.40" width="73.14" height="179.20" fill="none" stroke="currentColor" stroke-width="8"/><rect x="128.00" y="44.80" width="109.71" height="38.40" fill="none" stroke="currentColor" stroke-width="8"/><rect x="128.00" y="108.80" width="109.71" height="38.40" fill="none" stroke="currentColor" stroke-width="8"/><rect x="128.00" y="172.80" width="109.71" height="38.40" fill="none" stroke="currentColor" stroke-width="8"/><path d="M 73.14,64.00 L 128.00,64.00 M 73.14,128.00 L 128.00,128.00 M 73.14,192.00 L 128.00,192.00 M 155.43,44.80 L 155.43,83.20 M 182.86,44.80 L 182.86,83.20 M 210.29,44.80 L 210.29,83.20 M 155.43,108.80 L 155.43,147.20 M 182.86,108.80 L 182.86,147.20 M 210.29,108.80 L 210.29,147.20 M 155.43,172.80 L 155.43,211.20 M 182.86,172.80 L 182.86,211.20 M 210.29,172.80 L 210.29,211.20 M 45.71,102.40 L 27.43,102.40 L 27.43,153.60 L 45.71,153.60 M 27.43,128.00 L 40.23,128.00" fill="none" stroke="currentColor" stroke-width="8" stroke-linecap="round" stroke-linejoin="round"/></svg>