<svg xmlns="http://www.w3.org/2000/svg" viewBox="0.0 0.0 264.0 104.0" width="264.0" height="104.0"><g transform="translate(4,4)"><path d="M 64.00,96.00 A 48.00,48.00 0 0 1 16.00,48.00 A 48.00,48.00 0 0 1 64.00,0.00 L 192.00,0.00 A 48.00,48.00 0 0 1 240.00,48.00 A 48.00,48.00 0 0 1 192.00,96.00 Z M 0.00,48.00 L 48.00,48.00 M 208.00,48.00 L 256.00,48.00 M 208.00,32.00 L 208.00,64.00 M 48.00,32.00 L 48.00,64.00" fill="none" stroke="currentColor" stroke-width="8" stroke-linecap="round" stroke-linejoin="round"/><ellipse cx="48.0016" cy="32.0016" rx="16" ry="16" fill="none" stroke="currentColor" stroke-width="8"/><ellipse cx="176.0016" cy="32.0016" rx="16" ry="16" fill="none" stroke="currentColor" stroke-width="8"/><ellipse cx="121.606.4" cy="9.606.4" rx="6.4" ry="6.4" fill="none" stroke="currentColor" stroke-width="8"/></g></svg>