<svg xmlns="http://www.w3.org/2000/svg" viewBox="0.0 0.0 256.0 194.8" width="256.0" height="194.8"><rect x="109.71" y="0.00" width="146.29" height="182.86" fill="none" stroke="currentColor" stroke-width="8"/><rect x="0.00" y="27.43" width="73.14" height="128.00" fill="none" stroke="currentColor" stroke-width="8"/><rect x="128.00" y="32.00" width="109.71" height="27.43" fill="none" stroke="currentColor" stroke-width="8"/><rect x="128.00" y="77.71" width="109.71" height="27.43" fill="none" stroke="currentColor" stroke-width="8"/><rect x="128.00" y="123.43" width="109.71" height="27.43" fill="none" stroke="currentColor" stroke-width="8"/><path d="M 73.14,45.71 L 128.00,45.71 M 73.14,91.43 L 128.00,91.43 M 73.14,137.14 L 128.00,137.14 M 155.43,32.00 L 155.43,59.43 M 182.86,32.00 L 182.86,59.43 M 210.29,32.00 L 210.29,59.43 M 155.43,77.71 L 155.43,105.14 M 182.86,77.71 L 182.86,105.14 M 210.29,77.71 L 210.29,105.14 M 155.43,123.43 L 155.43,150.86 M 182.86,123.43 L 182.86,150.86 M 210.29,123.43 L 210.29,150.86 M 45.71,73.14 L 27.43,73.14 L 27.43,109.71 L 45.71,109.71 M 27.43,91.43 L 40.23,91.43" fill="none" stroke="currentColor" stroke-width="8" stroke-linecap="round" stroke-linejoin="round"/></svg>